<svg xmlns="http://www.w3.org/2000/svg" xmlns:xlink="http://www.w3.org/1999/xlink" width="100.0" height="100.0" viewBox="-0.62 -0.62 3.24 3.24" preserveAspectRatio="xMinYMin meet"><g transform="matrix(1,0,0,-1,0,2.0)"><path fill-rule="evenodd" fill="#66cc99" stroke="#555555" stroke-width="0.06480000000000001" opacity="0.6" d="M -0.5,0.0 L -0.5,2.0 L -0.4975923633360984,2.0490085701647804 L -0.4903926402016152,2.0975451610080644 L -0.4784701678661044,2.145142338627231 L -0.46193976625564337,2.191341716182545 L -0.44096063217417747,2.235698368412999 L -0.4157348061512727,2.277785116509801 L -0.3865052266813685,2.317196642081823 L -0.35355339059327373,2.353553390593274 L -0.3171966420818227,2.3865052266813684 L -0.277785116509801,2.4157348061512725 L -0.23569836841299885,2.4409606321741775 L -0.19134171618254486,2.4619397662556435 L -0.14514233862723108,2.4784701678661043 L -0.0975451610080641,2.490392640201615 L -0.04900857016478032,2.4975923633360986 L 0.0,2.5 L 2.0,2.5 L 2.0490085701647804,2.4975923633360986 L 2.097545161008064,2.490392640201615 L 2.145142338627231,2.4784701678661043 L 2.191341716182545,2.4619397662556435 L 2.235698368412999,2.4409606321741775 L 2.277785116509801,2.4157348061512725 L 2.317196642081823,2.3865052266813684 L 2.353553390593274,2.353553390593274 L 2.3865052266813684,2.317196642081823 L 2.4157348061512725,2.277785116509801 L 2.4409606321741775,2.235698368412999 L 2.4619397662556435,2.191341716182545 L 2.4784701678661043,2.145142338627231 L 2.490392640201615,2.097545161008064 L 2.4975923633360986,2.0490085701647804 L 2.5,2.0 L 2.5,0.0 L 2.4975923633360986,-0.04900857016478036 L 2.490392640201615,-0.09754516100806412 L 2.4784701678661043,-0.14514233862723114 L 2.4619397662556435,-0.1913417161825449 L 2.4409606321741775,-0.23569836841299888 L 2.4157348061512725,-0.2777851165098011 L 2.3865052266813684,-0.31719664208182274 L 2.353553390593274,-0.35355339059327373 L 2.317196642081823,-0.3865052266813685 L 2.277785116509801,-0.4157348061512726 L 2.235698368412999,-0.44096063217417747 L 2.191341716182545,-0.46193976625564337 L 2.145142338627231,-0.4784701678661044 L 2.097545161008064,-0.4903926402016152 L 2.0490085701647804,-0.4975923633360984 L 2.0,-0.5 L 0.0,-0.5 L -0.04900857016478032,-0.49759236333609846 L -0.0975451610080641,-0.4903926402016152 L -0.14514233862723108,-0.47847016786610447 L -0.19134171618254486,-0.46193976625564337 L -0.23569836841299885,-0.4409606321741775 L -0.277785116509801,-0.4157348061512727 L -0.3171966420818227,-0.38650522668136855 L -0.35355339059327373,-0.3535533905932738 L -0.3865052266813685,-0.31719664208182274 L -0.4157348061512727,-0.2777851165098011 L -0.44096063217417747,-0.23569836841299893 L -0.46193976625564337,-0.19134171618254495 L -0.4784701678661044,-0.1451423386272312 L -0.4903926402016152,-0.0975451610080643 L -0.4975923633360984,-0.04900857016478041 L -0.5,0.0 z" /></g></svg>